<svg width="16" height="16" viewBox="0 0 16 16" fill="none" xmlns="http://www.w3.org/2000/svg">
<path d="M0.5 1C0.5 0.723858 0.723858 0.5 1 0.5H14C14.2761 0.5 14.5 0.723858 14.5 1V14C14.5 14.2761 14.2761 14.5 14 14.5H3.10145C2.99326 14.5 2.888 14.4649 2.80145 14.4L0.7 12.8239C0.574097 12.7295 0.5 12.5813 0.5 12.4239V1Z" fill="var(--mw-icon-background-default-medium-gray, #D9D9D9)" stroke="var(--mw-icon-border-default-gray, #616161)"></path>
<path d="M3.5 9.75C3.5 9.61193 3.61193 9.5 3.75 9.5H11.25C11.3881 9.5 11.5 9.61193 11.5 9.75V14.5H3.75C3.61193 14.5 3.5 14.3881 3.5 14.25V9.75Z" fill="var(--mw-icon-background-default-white, #FFFFFF)" stroke="var(--mw-icon-border-default-gray, #616161)"></path>
<path d="M5 11H7V14H5V11Z" fill="var(--mw-icon-border-default-gray, #616161)"></path>
<path d="M2.5 0.5H12.5V7.25C12.5 7.38807 12.3881 7.5 12.25 7.5H2.75C2.61193 7.5 2.5 7.38807 2.5 7.25V0.5Z" fill="white" stroke="var(--mw-icon-border-default-gray, #616161)"></path>
</svg>